<?xml version="1.0" encoding="utf-8"?>
<!-- Generator: Adobe Illustrator 19.0.0, SVG Export Plug-In . SVG Version: 6.00 Build 0)  -->
<svg version="1.1" xmlns="http://www.w3.org/2000/svg" xmlns:xlink="http://www.w3.org/1999/xlink" x="0px" y="0px"
	 viewBox="0 0 58 40" style="enable-background:new 0 0 58 40;" xml:space="preserve">
<style type="text/css">
	.st0{fill:#FBFBFB;}
	.st1{fill:none;stroke:#989898;stroke-width:2;stroke-miterlimit:10;}
	.st2{fill:#989898;}
	.st3{fill:#E6E6E5;}
	.st4{fill:#231F20;}
	.st5{fill:none;stroke:#CC0000;stroke-width:3;stroke-miterlimit:10;}
</style>
<g id="Background">
	<rect id="XMLID_2_" class="st0" width="58" height="40"/>
</g>
<g id="Layer_2">
	<path id="XMLID_1_" class="st1" d="M48.5,35h-38c-2.2,0-4-1.8-4-4V9c0-2.2,1.8-4,4-4h38c2.2,0,4,1.8,4,4v22
		C52.5,33.2,50.7,35,48.5,35z"/>
	<rect id="XMLID_3_" x="6.5" y="10" class="st2" width="46" height="6"/>
	<rect id="XMLID_4_" x="10.5" y="19" class="st3" width="40" height="10"/>
	<g id="XMLID_7_">
		<path id="XMLID_8_" class="st4" d="M37.8,27.6h-1.4v-5.2c-0.5,0.5-1.1,0.8-1.8,1v-1.2c0.4-0.1,0.7-0.3,1.2-0.7s0.7-0.7,0.9-1.1
			h1.1V27.6z"/>
		<path id="XMLID_10_" class="st4" d="M44.5,26.3v1.3h-4.8c0.1-0.5,0.2-0.9,0.5-1.4c0.3-0.4,0.8-1,1.5-1.7c0.6-0.6,1-1,1.1-1.2
			c0.2-0.3,0.3-0.6,0.3-0.8c0-0.3-0.1-0.5-0.2-0.7c-0.2-0.2-0.4-0.2-0.7-0.2c-0.3,0-0.5,0.1-0.7,0.3c-0.2,0.2-0.3,0.5-0.3,0.9
			l-1.4-0.1c0.1-0.8,0.3-1.3,0.8-1.6c0.4-0.3,1-0.5,1.6-0.5c0.7,0,1.3,0.2,1.7,0.6s0.6,0.9,0.6,1.4c0,0.3-0.1,0.6-0.2,0.9
			c-0.1,0.3-0.3,0.6-0.5,0.9c-0.2,0.2-0.5,0.5-0.9,0.9c-0.4,0.4-0.7,0.7-0.8,0.8c-0.1,0.1-0.2,0.3-0.3,0.4H44.5z"/>
		<path id="XMLID_12_" class="st4" d="M45.3,25.7l1.3-0.2c0,0.3,0.2,0.6,0.3,0.8s0.4,0.3,0.7,0.3c0.3,0,0.5-0.1,0.7-0.3
			c0.2-0.2,0.3-0.5,0.3-0.9c0-0.3-0.1-0.6-0.3-0.8c-0.2-0.2-0.4-0.3-0.7-0.3c-0.2,0-0.4,0-0.6,0.1l0.2-1.1c0.4,0,0.7-0.1,0.8-0.2
			s0.3-0.4,0.3-0.7c0-0.2-0.1-0.4-0.2-0.6c-0.1-0.1-0.3-0.2-0.6-0.2c-0.2,0-0.4,0.1-0.6,0.2c-0.2,0.2-0.3,0.4-0.3,0.7l-1.3-0.2
			c0.1-0.4,0.2-0.8,0.4-1c0.2-0.3,0.4-0.5,0.7-0.6c0.3-0.1,0.7-0.2,1.1-0.2c0.7,0,1.2,0.2,1.6,0.6c0.3,0.4,0.5,0.7,0.5,1.2
			c0,0.6-0.3,1.1-1,1.5c0.4,0.1,0.7,0.3,1,0.6c0.2,0.3,0.4,0.7,0.4,1.1c0,0.6-0.2,1.2-0.7,1.6s-1,0.7-1.7,0.7
			c-0.6,0-1.2-0.2-1.6-0.6C45.6,26.8,45.4,26.3,45.3,25.7z"/>
	</g>
	<circle id="XMLID_6_" class="st5" cx="42" cy="24" r="11"/>
</g>
</svg>
