<?xml version="1.0" encoding="utf-8"?>
<!DOCTYPE svg PUBLIC "-//W3C//DTD SVG 1.1//EN" "http://www.w3.org/Graphics/SVG/1.1/DTD/svg11.dtd">
<svg version="1.1" xmlns="http://www.w3.org/2000/svg" xmlns:xlink="http://www.w3.org/1999/xlink" x="0px" y="0px"
	 width="90px" height="36px" viewBox="0 0 90 36" style="enable-background:new 0 0 90 36;" xml:space="preserve">
<g>
	<path fill="#0072C6" d="M0,26.6V22c0.9,0.6,1.9,1,2.8,1.3c0.9,0.3,1.8,0.4,2.6,0.4c1,0,1.8-0.1,2.4-0.4
		C8.3,23,8.6,22.6,8.6,22c0-0.4-0.1-0.7-0.4-0.9c-0.3-0.2-0.6-0.4-1-0.6c-0.4-0.2-0.9-0.3-1.3-0.5s-1-0.3-1.4-0.5
		c-0.7-0.3-1.4-0.6-1.9-0.9s-1-0.7-1.4-1.1c-0.4-0.4-0.7-0.9-0.9-1.4C0.1,15.6,0,14.9,0,14.2c0-1,0.2-1.9,0.7-2.6
		c0.4-0.7,1-1.3,1.8-1.8s1.6-0.8,2.6-1c1-0.2,2-0.3,3-0.3c0.8,0,1.6,0.1,2.5,0.2c0.8,0.1,1.7,0.3,2.5,0.5v4.4
		c-0.7-0.4-1.5-0.7-2.3-0.9c-0.8-0.2-1.6-0.3-2.4-0.3c-0.4,0-0.7,0-1,0.1c-0.3,0.1-0.6,0.2-0.9,0.3S5.9,12.9,5.7,13
		c-0.1,0.2-0.2,0.4-0.2,0.7c0,0.3,0.1,0.6,0.3,0.9c0.2,0.2,0.5,0.4,0.8,0.6c0.3,0.2,0.7,0.3,1.2,0.5c0.4,0.1,0.8,0.3,1.3,0.4
		c0.8,0.3,1.4,0.5,2,0.9s1.1,0.7,1.6,1.1c0.4,0.4,0.8,0.9,1,1.5c0.2,0.6,0.3,1.2,0.3,2c0,1.1-0.2,2-0.7,2.8
		c-0.5,0.8-1.1,1.4-1.9,1.9S9.8,27,8.8,27.2s-2.1,0.3-3.2,0.3C3.6,27.5,1.7,27.2,0,26.6z"/>
	<path fill="#0072C6" d="M32.5,27.1h-5.3v-2.6h-0.1c-1.2,2-3,3.1-5.4,3.1c-1.8,0-3.2-0.5-4.2-1.5c-1-1-1.5-2.3-1.5-4
		c0-3.5,2.1-5.6,6.3-6.1l5-0.7c0-2-1.1-3-3.3-3c-2.2,0-4.3,0.6-6.2,1.9V9.9c0.8-0.4,1.9-0.8,3.2-1.1c1.4-0.3,2.6-0.5,3.7-0.5
		c5.2,0,7.8,2.6,7.8,7.8V27.1z M27.2,19.6v-1.2l-3.3,0.4c-1.8,0.2-2.8,1.1-2.8,2.5c0,0.6,0.2,1.2,0.7,1.6c0.4,0.4,1.1,0.6,1.8,0.6
		c1.1,0,1.9-0.4,2.6-1.1C26.9,21.7,27.2,20.8,27.2,19.6z"/>
	<path fill="#0072C6" d="M42.6,26.8c0,2.7-0.7,4.9-2,6.5c-1.3,1.6-3.2,2.4-5.7,2.4c-0.8,0-1.7-0.2-2.7-0.5v-4.4
		c0.8,0.4,1.5,0.7,2.1,0.7c1.8,0,2.7-1.4,2.7-4.2V8.8h5.6V26.8z M39.8,5.9c-1,0-1.7-0.3-2.3-0.8c-0.6-0.6-0.9-1.3-0.9-2.1
		c0-0.8,0.3-1.5,0.9-2.1c0.6-0.5,1.4-0.8,2.3-0.8c1,0,1.7,0.3,2.3,0.8c0.6,0.5,0.9,1.2,0.9,2.1c0,0.9-0.3,1.6-0.9,2.1
		C41.6,5.6,40.8,5.9,39.8,5.9z"/>
	<path fill="#0072C6" d="M50.2,5.9c-1,0-1.7-0.3-2.3-0.8C47.3,4.5,47,3.8,47,3c0-0.8,0.3-1.5,0.9-2.1
		c0.6-0.5,1.4-0.8,2.3-0.8c1,0,1.7,0.3,2.3,0.8c0.6,0.5,0.9,1.2,0.9,2.1c0,0.9-0.3,1.6-0.9,2.1C52,5.6,51.2,5.9,50.2,5.9z M53,27.1
		h-5.6V8.8H53V27.1z"/>
	<path fill="#0072C6" d="M57.3,19.9c0-0.7,0.1-1.3,0.3-2c0.2-0.7,0.5-1.3,0.9-1.9c0.4-0.6,0.9-1.1,1.5-1.6
		c0.6-0.5,1.3-0.8,2.1-1.1c-0.6-0.3-1.1-0.6-1.6-1c-0.5-0.4-0.9-0.9-1.3-1.3c-0.3-0.5-0.6-1-0.8-1.6s-0.3-1.2-0.3-1.8
		c0-0.9,0.2-1.8,0.5-2.6s0.8-1.5,1.4-2.1c0.6-0.6,1.3-1,2.1-1.4S63.9,1,64.8,1c1,0,1.9,0.2,2.7,0.5c0.8,0.3,1.5,0.8,2.1,1.4
		C70.2,3.5,70.7,4.2,71,5s0.5,1.7,0.5,2.6c0,0.6-0.1,1.2-0.3,1.8s-0.4,1.1-0.8,1.6c-0.3,0.5-0.7,0.9-1.2,1.3c-0.5,0.4-1,0.7-1.6,1
		c0.8,0.3,1.5,0.7,2.1,1.1c0.6,0.5,1.1,1,1.5,1.6c0.4,0.6,0.7,1.2,0.9,1.9s0.3,1.3,0.3,2c0,1.2-0.2,2.3-0.6,3.2
		c-0.4,0.9-0.9,1.7-1.5,2.4c-0.7,0.6-1.5,1.1-2.4,1.5s-1.9,0.5-3.1,0.5c-1.1,0-2.1-0.2-3-0.5c-0.9-0.3-1.7-0.8-2.4-1.5
		s-1.2-1.4-1.6-2.4C57.5,22.2,57.3,21.1,57.3,19.9z M59,20.1c0,0.9,0.1,1.7,0.4,2.4c0.3,0.7,0.7,1.3,1.2,1.9
		c0.5,0.5,1.1,0.9,1.8,1.2s1.5,0.4,2.3,0.4c0.8,0,1.6-0.1,2.3-0.4s1.3-0.7,1.8-1.2c0.5-0.5,0.9-1.1,1.2-1.9c0.3-0.7,0.4-1.5,0.4-2.4
		c0-0.8-0.1-1.6-0.4-2.3c-0.3-0.7-0.7-1.3-1.2-1.9c-0.5-0.5-1.1-1-1.8-1.3c-0.7-0.3-1.5-0.5-2.4-0.5c-0.8,0-1.6,0.1-2.3,0.4
		c-0.7,0.3-1.3,0.7-1.8,1.2c-0.5,0.5-0.9,1.1-1.2,1.9C59.1,18.5,59,19.3,59,20.1z M59.9,7.6c0,0.7,0.1,1.4,0.4,2
		c0.3,0.6,0.6,1.1,1.1,1.6c0.4,0.5,1,0.8,1.6,1.1c0.6,0.3,1.2,0.4,1.9,0.4c0.7,0,1.3-0.1,1.9-0.4c0.6-0.3,1.1-0.6,1.6-1.1
		c0.4-0.5,0.8-1,1.1-1.6c0.3-0.6,0.4-1.3,0.4-2c0-0.7-0.1-1.4-0.4-2S68.8,4.5,68.3,4s-1-0.8-1.6-1.1s-1.3-0.4-2-0.4
		c-0.7,0-1.4,0.1-2,0.4c-0.6,0.3-1.1,0.6-1.6,1.1c-0.4,0.5-0.8,1-1,1.6C60,6.3,59.9,6.9,59.9,7.6z"/>
	<path fill="#0072C6" d="M87.6,27.1l-8.8-9h-0.1v9h-1.6V0h1.6v17.4h0.1l8.3-8.7h2.1l-8.7,8.9l9.4,9.4H87.6z"/>
</g>
</svg>
