<?xml version="1.0" encoding="utf-8"?>
<!-- Generator: Adobe Illustrator 17.0.0, SVG Export Plug-In . SVG Version: 6.00 Build 0)  -->
<!DOCTYPE svg PUBLIC "-//W3C//DTD SVG 1.1//EN" "http://www.w3.org/Graphics/SVG/1.1/DTD/svg11.dtd">
<svg version="1.1" id="Layer_1" xmlns="http://www.w3.org/2000/svg" xmlns:xlink="http://www.w3.org/1999/xlink" x="0px" y="0px"
	 width="64px" height="64px" viewBox="0 0 64 64" enable-background="new 0 0 64 64" xml:space="preserve">
<rect fill="#27AAE1" width="64" height="64"/>
<g>
	<path d="M44.415,53.818H19.585c-4.516,0-7.585-2.756-7.585-7.358c0-6.422,1.505-16.279,9.83-16.279c0.88,0,4.601,3.949,10.17,3.949
		s9.29-3.949,10.17-3.949c8.325,0,9.83,9.857,9.83,16.279C52,51.062,48.931,53.818,44.415,53.818z M32,32
		c-6.022,0-10.909-4.887-10.909-10.909S25.978,10.182,32,10.182s10.909,4.887,10.909,10.909S38.022,32,32,32z"/>
</g>
</svg>
