<?xml version="1.0" encoding="utf-8"?>
<!-- Generator: Adobe Illustrator 17.0.0, SVG Export Plug-In . SVG Version: 6.00 Build 0)  -->
<!DOCTYPE svg PUBLIC "-//W3C//DTD SVG 1.1//EN" "http://www.w3.org/Graphics/SVG/1.1/DTD/svg11.dtd">
<svg version="1.1" id="Layer_1" xmlns="http://www.w3.org/2000/svg" xmlns:xlink="http://www.w3.org/1999/xlink" x="0px" y="0px"
	 width="64px" height="64px" viewBox="0 0 64 64" enable-background="new 0 0 64 64" xml:space="preserve">
<rect fill="#00AEEF" width="64" height="64"/>
<g>
	<path d="M16.196,35.2h-3.35c-2.5,0-4.85-1.2-4.85-3.976c0-2.025-0.075-8.825,3.1-8.825c0.525,0,3.125,2.125,6.5,2.125
		c1.15,0,2.25-0.2,3.325-0.575c-0.075,0.55-0.125,1.1-0.125,1.65c0,2.275,0.725,4.525,2.025,6.401
		C20.221,32.075,17.871,33.201,16.196,35.2z M17.596,22.4c-3.525,0-6.4-2.875-6.4-6.4s2.875-6.4,6.4-6.4s6.4,2.875,6.4,6.4
		S21.121,22.4,17.596,22.4z M42.921,54.4h-21.85c-4,0-6.675-2.426-6.675-6.475c0-5.65,1.325-14.326,8.65-14.326
		c0.85,0,3.95,3.477,8.95,3.477c5,0,8.1-3.477,8.949-3.477c7.326,0,8.65,8.676,8.65,14.326C49.596,51.974,46.921,54.4,42.921,54.4z
		 M31.996,35.2c-5.3,0-9.6-4.301-9.6-9.601s4.3-9.6,9.6-9.6c5.3,0,9.6,4.3,9.6,9.6S37.297,35.2,31.996,35.2z M46.396,22.4
		c-3.525,0-6.4-2.875-6.4-6.4s2.875-6.4,6.4-6.4c3.525,0,6.4,2.875,6.4,6.4S49.921,22.4,46.396,22.4z M51.146,35.2h-3.35
		c-1.675-2-4.024-3.125-6.625-3.2c1.3-1.875,2.025-4.125,2.025-6.401c0-0.55-0.05-1.1-0.125-1.65
		c1.075,0.375,2.176,0.575,3.325,0.575c3.375,0,5.974-2.125,6.5-2.125c3.175,0,3.1,6.8,3.1,8.825C55.996,34,53.646,35.2,51.146,35.2
		z"/>
</g>
</svg>
