<?xml version="1.0" encoding="utf-8"?>
<!-- Generator: Adobe Illustrator 17.0.0, SVG Export Plug-In . SVG Version: 6.00 Build 0)  -->
<!DOCTYPE svg PUBLIC "-//W3C//DTD SVG 1.1//EN" "http://www.w3.org/Graphics/SVG/1.1/DTD/svg11.dtd">
<svg version="1.1" id="Layer_1" xmlns="http://www.w3.org/2000/svg" xmlns:xlink="http://www.w3.org/1999/xlink" x="0px" y="0px"
	 width="890px" height="91px" viewBox="0 0 890 91" enable-background="new 0 0 890 91" xml:space="preserve">
<path id="path94" fill="#D03C37" d="M0,91h890V0H0L0,91L0,91z"/>
<path id="path96" fill="#FFFFFF" d="M811.709,75.502h-1.57V14.722h1.57V75.502z M785.155,75.502
	l-16.829-54.117l0.836-2.971l17.56,57.088H785.155L785.155,75.502z M760.064,49.675l7.427-25.213l7.838,25.213H760.064z
	 M724.101,75.502l-3.447-55.858l1.356-3.795l3.66,59.654H724.101z M700.785,66.074l-18.293-46.33l0.103-3.791l19.026,48.072
	L700.785,66.074L700.785,66.074z M827.578,75.502h-6.358V14.722h6.358v-4.303H801.88v4.303h6.482v60.781h-11.289l-19.864-65.084
	H767.07c-2.511,10.247-17.565,57.81-17.565,57.81c-1.569,4.611-3.763,7.274-8.26,7.274h-6.271l-1.881-42.125
	c-0.42-9.325-0.522-11.683-0.522-13.121c0-3.894,0.42-4.713,6.795-5.535v-4.303h-19.134c-3.763,10.046-9.408,26.955-13.906,39.563
	c-8.152-20.396-15.47-39.563-15.47-39.563H670.26v4.303c7.111,1.335,7.739,0.617,7.739,7.383v0.818
	c-0.628,12.301-1.988,33.928-2.932,46.742c-0.205,3.071-1.147,4.611-7.627,6.148v3.998h21.116v-4.1
	c-7.423-1.23-7.841-3.794-7.841-6.046c0-1.95,0.733-19.683,1.252-33.825l0.417-11.686l18.508,46.841l2.716-1.23l15.579-46.02
	l3.138,51.758h-7.006v4.308h46.419v-4.308c-7.424-0.613-7.63-2.663-6.172-9.223c0.525-2.255,1.361-5.637,2.932-11.377h18.397
	c1.989,6.458,4.284,13.326,6.375,20.6h-6.062v4.308h50.37L827.578,75.502L827.578,75.502z M867.847,70.688
	c-0.73,2.357-2.197,4.202-3.556,4.612h-1.779c1.466-0.514,3.036-2.667,3.768-4.817l3.551-11.276l1.47,0.305L867.847,70.688
	L867.847,70.688z M839.62,75.502h-1.567V14.722h1.567V75.502z M868.787,56.748l-3.551,11.481c-1.363,4.306-3.768,7.274-7.951,7.274
	h-8.153c-0.105,0-0.105-2.767-0.105-60.781h6.483v-4.303h-25.403v4.303h6.169v60.781h-6.197v4.308h43.099l1.671-21.937
	L868.787,56.748L868.787,56.748z M630.956,69.867c-1.885,2.562-5.019,5.227-8.367,5.538h-0.415
	c11.289-4.617,12.545-19.887,12.545-29.317c0-8.611-1.567-16.094-4.812-21.834c-2.299-4.2-5.433-7.684-9.617-9.428h0.313
	c1.986,0.204,4.391,1.64,5.857,2.768c6.897,5.638,9.931,16.193,9.931,28.188C636.39,54.595,635.239,63.922,630.956,69.867
	 M613.807,75.502h-1.467c-1.67,0-2.402-1.126-2.402-3.073V14.722h1.255c5.54,0,7.633,0.926,9.828,2.154
	c8.049,4.715,11.92,17.016,11.92,29.52c0,14.349-3.87,22.958-9.617,26.649C621.229,74.377,619.138,75.502,613.807,75.502
	 M600.425,75.502h-1.57V14.722h1.57V75.502z M578.053,77.351l-36.695-56.989c-0.943-1.436-2.928-4.204-3.97-5.23l0.1-0.201
	l1.986,0.305c0,0,2.719,3.586,4.08,5.739l34.498,53.506V77.351L578.053,77.351z M517.734,75.502L500.9,21.385l0.838-2.971
	l17.564,57.088H517.734z M492.645,49.675l7.423-25.213l7.839,25.213H492.645z M615.377,10.419h-45.582v4.303
	c8.57,0,8.679,4.818,8.679,7.483v33.929c-8.886-14.041-28.543-43.77-29.587-45.715H531.53v3.998
	c3.347,0.305,6.377,3.998,8.366,6.969v46.739c0,4.033-0.279,6.852-5.119,7.465v-0.088h-5.124L509.79,10.419h-10.14
	c-2.509,10.247-17.567,57.81-17.567,57.81c-1.565,4.611-3.763,7.274-8.256,7.274v4.308h20.491v-4.308
	c-7.423-0.613-7.635-2.663-6.171-9.223c0.523-2.255,1.358-5.637,2.931-11.377h18.401c1.986,6.458,4.284,13.326,6.377,20.6h-6.066
	v4.308h44.951v-4.308c-9.723-0.098-9.932-4.095-9.932-7.378V28.868l32.828,50.942h5.54c0-3.586,0.206-7.994,0.206-12.403V22.205
	c0-4.715,1.361-7.483,7.842-7.483h5.852v60.781h-6.897v4.308h25.198c19.653,0,31.05-16.504,31.05-35.568
	C646.427,24.462,635.347,10.419,615.377,10.419 M452.708,59.721l-3.659,10.967c-0.941,2.666-2.822,4.612-5.017,4.612h-0.208
	c1.464-0.514,2.926-2.667,3.658-4.817l3.763-11.069C451.244,59.414,452.708,59.721,452.708,59.721z M417.688,75.502h-1.571V14.722
	h1.571V75.502z M441.837,14.931c1.988,0,3.346,1.432,4.286,4.61l2.616,8.406l0.311,1.024l-1.464,0.308l-3.03-9.534
	c-0.629-2.15-1.672-4.306-3.14-4.813L441.837,14.931L441.837,14.931z M446.435,68.329c-1.567,4.716-3.655,7.174-7.423,7.174h-11.811
	c-0.108,0-0.108-1.227-0.108-27.672h17.357v-5.329h-17.357v-27.78h8.891c4.179,0.104,5.643,1.436,6.899,5.434l3.551,11.173
	l5.963-1.128V10.419h-44.537v4.303h6.48v60.781h-6.48v4.308h46.728l1.462-21.32l-5.852-1.125L446.435,68.329L446.435,68.329z
	 M240.28,56.336h1.565v16.809l-1.565,0.409V56.336z M215.497,75.3C205.36,68.329,201.7,57.567,201.7,46.189
	c0.209-12.094,4.916-24.085,15.053-30.751c1.361-0.922,1.361-0.306,1.152,0l-1.256,1.027c-8.363,6.97-13.277,18.551-13.277,29.724
	c0,11.177,3.66,21.219,12.021,28.086l1.256,1.024C217.069,76.12,216.232,75.71,215.497,75.3 M234.214,15.338
	c1.775,0,4.079,1.74,5.539,4.508c1.152,2.358,2.407,5.125,4.391,12.609l-1.567,0.306c-1.984-7.071-3.136-10.249-4.598-13.118
	c-1.152-2.358-3.345-3.997-3.973-4.306C234.005,15.338,234.214,15.338,234.214,15.338z M230.87,56.336h7.63v17.63
	c-2.512,0.719-4.915,0.819-7.843,0.819c-9.302,0-17.145-8.506-17.145-30.543c0-16.502,6.168-29.007,15.266-29.007
	c7.108,0,9.614,8.711,12.541,19.576l6.904-1.231V15.339c-5.648-3.998-10.77-5.433-17.985-5.433
	c-18.604,0-30.314,17.63-30.314,36.283c0,23.475,12.649,34.337,29.795,34.337c4.598,0,11.077-1.434,15.472-3.073l5.75-0.513V51.93
	H230.87V56.336L230.87,56.336z M394.06,72.736c-0.834,1.128-2.716,2.26-4.287,2.564h-0.313c3.659-1.946,5.648-6.56,5.648-12.708
	c0-6.767-2.408-13.633-6.587-15.785h0.208c1.776,0.304,3.868,1.639,5.02,3.381c1.988,3.076,3.031,7.585,3.031,12.404
	C396.779,67.102,395.839,70.483,394.06,72.736 M382.354,75.502h-6.38c-1.047,0-1.047-1.126-1.047-2.458V46.702h8.783
	c6.695,0.409,9.618,7.38,9.618,15.89C393.328,71.508,389.357,75.502,382.354,75.502 M365.521,75.502h-1.566V14.722h1.566V75.502z
	 M374.928,14.722h6.487c6.163,0,9.302,6.663,9.302,14.967c0,6.867-2.823,12.504-7.843,12.504h-7.946
	C374.928,42.193,374.928,14.722,374.928,14.722z M387.058,14.931c1.464,0.305,2.716,1.227,3.447,2.048
	c2.407,2.868,3.66,7.584,3.66,12.71c0,3.689-0.732,7.174-2.299,9.636c-0.729,1.126-2.718,2.559-4.184,2.768h-0.208
	c3.346-1.948,5.017-7.175,5.017-12.404c0-6.355-1.883-12.505-5.643-14.758H387.058z M391.241,44.039
	c9.094-3.076,12.334-9.739,12.334-15.789c0-11.172-7.318-17.831-20.177-17.831h-28.122v4.303h6.9v60.781h-6.9v4.308h29.582
	c13.283,0,21.957-7.382,21.957-18.143C406.814,52.546,401.17,45.371,391.241,44.039 M333.843,75.3
	c-1.464,0.617-1.464,0.306-0.42-0.41c7.532-5.125,9.307-16.912,9.307-28.802c0-11.888-1.984-24.703-9.307-30.135
	c-1.043-0.717-1.043-1.022,0.42-0.409c9.618,4.612,10.557,22.037,10.557,30.238C344.401,55.62,343.565,70.688,333.843,75.3
	 M310.528,45.163c0-20.088,4.391-30.031,15.16-30.031c9.516,0,15.267,9.943,15.267,30.031c0,20.091-4.392,29.931-15.267,29.931
	C316.279,75.095,310.528,65.254,310.528,45.163 M312.516,75.71c-10.138-6.869-13.801-18.344-13.801-29.521
	c0-12.197,3.974-23.881,13.801-31.057c0.734-0.41,1.567-0.818,1.151,0l-1.151,1.026c-8.155,7.278-12.126,18.858-12.126,30.031
	c0,11.177,3.972,21.627,12.126,28.597l1.151,0.924C314.083,76.528,313.25,76.12,312.516,75.71 M291.815,70.688
	c-0.727,2.357-2.19,4.202-3.551,4.612h-1.775c1.46-0.514,3.027-2.667,3.759-4.817l3.555-11.276l1.464,0.305L291.815,70.688
	L291.815,70.688z M263.592,75.502h-1.572V14.722h1.572V75.502z M325.688,9.702c-18.92,0-28.75,16.911-28.75,36.282
	c0,4.262,0.422,8.195,1.23,11.768l-5.408-1.004l-3.556,11.481c-1.36,4.306-3.763,7.274-7.946,7.274h-8.155
	c-0.104,0-0.104-2.767-0.104-60.781h6.482v-4.303h-25.403v4.303h6.167v60.781h-7.004v4.308h43.905l1.53-20.039
	c3.659,13.078,12.998,20.755,27.012,20.755c19.03,0,28.855-16.808,28.855-36.181C354.543,23.026,344.192,9.702,325.688,9.702
	 M175.149,59.721l-3.659,10.967c-0.943,2.666-2.823,4.612-5.02,4.612h-0.208c1.46-0.514,2.927-2.667,3.66-4.817l3.763-11.069
	L175.149,59.721L175.149,59.721z M140.125,75.502h-1.567V14.722h1.567V75.502z M112.317,75.502h-1.567V14.722h1.567V75.502z
	 M77.296,75.502h-1.567V14.722h1.567V75.502z M62.975,29.278l-3.032-10.147c-0.628-2.153-1.36-4.306-2.823-4.817h1.151
	c1.464,0.203,2.508,2.459,3.136,4.612l3.032,10.045L62.975,29.278z M37.987,75.502H36.42V14.517h1.567V75.502z M17.495,29.072
	l-1.461-0.204l0.629-15.577l1.46,0.099L17.495,29.072L17.495,29.072z M164.275,14.931c1.988,0,3.347,1.432,4.288,4.61l2.611,8.406
	l0.316,1.024l-1.464,0.308l-3.032-9.534c-0.627-2.15-1.675-4.306-3.138-4.813L164.275,14.931L164.275,14.931z M168.875,68.329
	c-1.569,4.716-3.659,7.174-7.423,7.174h-11.815c-0.103,0-0.103-1.227-0.103-27.672h17.356v-5.329h-17.356v-27.78h8.885
	c4.184,0.104,5.648,1.436,6.9,5.434l3.555,11.173l5.959-1.128V10.419h-44.537v4.303h6.483v60.781h-14.949V14.722h6.482v-4.303
	h-25.718v4.303h6.378v27.78H86.703v-27.78h6.482v-4.303H14.987L14.255,30.2l5.959,1.128l3.555-12.197
	c1.152-3.999,2.403-4.615,6.482-4.615h4.392v60.986h-8.262v4.308h29.275v-4.308h-8.26V14.517h4.393c4.493,0,5.121,0.513,6.375,4.512
	l3.659,12.3l5.959-1.128V14.722h6.167v60.781h-6.483v4.308h25.72v-4.308l-6.482-0.098V47.729h22.271v27.773h-6.378v4.308h74.433
	l1.464-21.32l-5.853-1.125L168.875,68.329"/>
</svg>
